<svg width="415" height="504" viewBox="0 0 415 504" fill="none" xmlns="http://www.w3.org/2000/svg">
<g clip-path="url(#clip0_323_2)">
<path d="M0.5 -1V381.053C0.5 381.053 32.7351 449.788 115.612 441.811C198.489 433.835 215.677 390.876 315.743 470.049C315.743 470.049 351.043 503.185 415.5 501.967V-1H0.5Z" fill="#FAF8F5"/>
<path d="M402.649 504C349.855 504 318.572 479.662 318.238 479.381C255.685 430.238 217.338 439.61 164.278 452.6C150.205 456.045 135.638 459.609 119.029 462.6C37.8493 477.232 -2.09944 434.67 -2.5 434.23L-1.51196 433.335C-1.12476 433.762 38.3967 475.777 118.775 461.291C135.358 458.301 149.885 454.75 163.944 451.305C217.378 438.235 255.978 428.796 319.053 478.34C319.44 478.647 357.399 508.152 420.353 501.757L420.487 503.079C414.305 503.72 408.35 504 402.649 504Z" fill="#F9F0E3"/>
</g>
<g clip-path="url(#clip1_323_2)">
<path d="M211.506 79.9997C211.506 79.9997 211.502 79.9997 211.494 79.9997C210.993 79.9997 195.144 79.919 196.594 70.9424C196.604 70.8799 196.614 70.8174 196.626 70.754C196.647 70.6349 196.673 70.5138 196.701 70.3908C196.756 70.1583 196.811 69.9267 196.867 69.6942C196.903 69.5462 196.939 69.3982 196.976 69.2512C197.01 69.1147 197.044 68.9783 197.079 68.8409C197.112 68.7112 197.146 68.5815 197.18 68.4527C197.181 68.4479 197.183 68.444 197.184 68.4392C197.247 68.1971 197.313 67.955 197.381 67.7138C197.389 67.6811 197.398 67.6484 197.408 67.6158C197.902 65.8487 198.487 64.1075 199.205 62.4221C199.988 60.5859 200.974 58.9351 202.119 57.3083C203.784 54.9454 205.751 52.3597 208.254 50.8559C209.22 50.2745 210.368 49.9094 211.5 50.0189C212.632 49.9094 213.78 50.2745 214.746 50.8559C217.248 52.3597 219.216 54.9454 220.88 57.3083C222.026 58.9351 223.012 60.5859 223.794 62.4221C224.682 64.5044 225.366 66.6722 225.927 68.8697C225.986 69.0975 226.043 69.3261 226.099 69.5548C226.101 69.5596 226.102 69.5644 226.103 69.5692C226.135 69.7019 226.167 69.8345 226.198 69.9671C226.213 70.0276 226.228 70.0872 226.241 70.1477C226.261 70.2284 226.279 70.3101 226.298 70.3908C228.498 79.9161 212.017 79.9997 211.506 79.9997Z" fill="url(#paint0_radial_323_2)"/>
<circle cx="215.5" cy="58.0001" r="2" fill="#D7D9FF"/>
<path d="M211.506 79.9998C211.506 79.9998 211.502 79.9998 211.493 79.9998C210.992 79.9998 195.144 79.9191 196.594 70.9424C196.603 70.88 196.614 70.8175 196.625 70.7541C196.647 70.6349 196.673 70.5139 196.701 70.3909C196.755 70.1583 196.81 69.9268 196.866 69.6942C196.902 69.5462 196.938 69.3983 196.975 69.2512C197.01 69.1148 197.044 68.9784 197.079 68.8409C197.112 68.7112 197.145 68.5815 197.18 68.4527C197.18 68.4479 197.182 68.4441 197.183 68.4393C197.247 68.1971 197.312 67.955 197.381 67.7138C197.416 67.6869 197.452 67.66 197.487 67.6331C199.157 66.3686 201.107 64.6486 201.624 63.1842C203.202 58.7103 206.338 61.2614 207.613 62.5644C208.018 62.9785 208.65 63.0612 209.141 62.7566C209.802 62.3453 210.722 61.5516 211.63 60.0363C212.308 58.9063 213.715 58.4595 214.891 59.0331C216.792 59.9613 219.996 62.3367 225.254 68.0847C225.497 68.3509 225.722 68.6123 225.927 68.8698C225.986 69.0975 226.043 69.3262 226.099 69.5549C226.1 69.5597 226.101 69.5645 226.102 69.5693C226.135 69.7019 226.167 69.8345 226.198 69.9671C226.212 70.0276 226.228 70.0872 226.241 70.1478C226.261 70.2285 226.279 70.3101 226.298 70.3909C228.498 79.9162 212.017 79.9998 211.506 79.9998Z" fill="#8589EB"/>
<path opacity="0.15" d="M211.506 80C211.506 80 211.502 80 211.493 80C210.992 80 195.144 79.9193 196.594 70.9426C196.603 70.8802 196.614 70.8177 196.625 70.7543C196.647 70.6351 196.673 70.5141 196.701 70.3911C196.755 70.1585 196.81 69.9269 196.866 69.6944C196.902 69.5464 196.938 69.3985 196.975 69.2514C197.738 69.0929 198.572 69.1986 199.201 70.0182C199.264 70.0989 199.326 70.1787 199.391 70.2565C199.722 70.6563 200.084 71.0108 200.489 71.2837C200.777 71.4788 201.087 71.6325 201.422 71.7315C202.019 71.9093 202.699 71.9131 203.481 71.671C204.459 71.3692 205.599 70.6822 206.945 69.4667C210.98 65.822 216.651 68.4722 218.505 70.9023C219.666 72.4243 222.09 72.0976 223.678 71.6335C223.961 71.5509 224.241 71.4576 224.514 71.3491C224.774 71.2453 225.028 71.129 225.273 70.9945C225.326 70.9657 225.379 70.9359 225.431 70.9051C225.576 70.8206 225.716 70.7303 225.854 70.6322C225.98 70.5419 226.107 70.442 226.179 70.3036C226.206 70.2546 226.224 70.2018 226.241 70.148C226.261 70.2287 226.279 70.3103 226.298 70.3911C228.498 79.9164 212.017 80 211.506 80Z" fill="white"/>
<path opacity="0.15" d="M211.506 80.0001C211.506 80.0001 211.502 80.0001 211.493 80.0001C210.992 80.0001 195.144 79.9194 196.594 70.9427C196.603 70.8803 196.614 70.8178 196.625 70.7544C196.647 70.6352 196.673 70.5142 196.701 70.3912C196.755 70.1586 196.81 69.9271 196.866 69.6945C196.902 69.5466 196.938 69.3986 196.975 69.2516C197.01 69.1151 197.044 68.9787 197.079 68.8413C197.112 68.7115 197.145 68.5818 197.18 68.4531C197.18 68.4483 197.182 68.4444 197.183 68.4396C197.247 68.1975 197.312 67.9553 197.381 67.7141C197.389 67.6815 197.398 67.6488 197.407 67.6161C197.434 67.6219 197.46 67.6276 197.487 67.6334C197.868 67.7228 198.248 67.8967 198.614 68.184C199.201 68.6443 199.753 69.3947 200.22 70.5507C200.299 70.7448 200.376 70.9514 200.449 71.1695C200.462 71.2079 200.474 71.2454 200.489 71.2838C200.905 72.4744 201.599 73.7226 202.778 74.2367C202.893 74.2876 203.015 74.3308 203.14 74.3664C204.671 74.7998 206.41 73.9542 207.599 73.025C207.981 72.7261 208.335 72.3889 208.737 72.1179C211.417 70.3066 214.739 73.0413 216.35 75.039C216.425 75.1322 216.499 75.2264 216.572 75.3206C216.848 75.677 217.13 75.9586 217.419 76.1709C219.959 78.0533 222.903 74.6671 224.839 71.6826C224.991 71.4501 225.135 71.2195 225.273 70.9946C225.486 70.6477 225.683 70.3133 225.861 70.0001C225.937 69.8665 226.009 69.7368 226.079 69.6129C226.086 69.5984 226.095 69.584 226.102 69.5696C226.135 69.7022 226.167 69.8348 226.198 69.9674C226.212 70.028 226.228 70.0875 226.241 70.1481C226.261 70.2288 226.279 70.3105 226.298 70.3912C228.498 79.9165 212.017 80.0001 211.506 80.0001Z" fill="white"/>
<path opacity="0.15" d="M211.506 80C211.506 80 211.502 80 211.493 80C210.992 80 195.144 79.9192 196.594 70.9426C197.297 70.5256 198.345 70.0749 199.391 70.2565C199.67 70.3055 199.949 70.3987 200.22 70.5506C200.645 70.7869 201.054 71.1646 201.422 71.7315C201.63 72.0534 201.826 72.4368 202.003 72.8894C202.195 73.3813 202.452 73.8464 202.778 74.2365C203.295 74.8573 203.985 75.2878 204.861 75.3368C206.257 75.4146 207.531 74.6718 208.639 73.9079C211.157 72.1716 213.303 75.3175 215.859 75.9642C216.402 76.1016 216.922 76.166 217.419 76.1708C220.268 76.2006 222.36 74.2634 223.569 72.7231C223.995 72.1822 224.312 71.6902 224.514 71.3491C224.689 71.0531 224.779 70.8715 224.779 70.8715C224.779 70.8715 225.196 70.1633 225.861 70C225.883 69.9932 225.906 69.9884 225.929 69.9846C226.015 69.9683 226.105 69.9625 226.198 69.9673C226.212 70.0278 226.228 70.0874 226.241 70.148C226.261 70.2287 226.279 70.3103 226.298 70.3911C228.498 79.9164 212.017 80 211.506 80Z" fill="white"/>
<path opacity="0.15" d="M211.506 80.0001C211.506 80.0001 211.502 80.0001 211.493 80.0001C210.992 80.0001 195.144 79.9194 196.594 70.9427C196.603 70.8802 196.614 70.8178 196.625 70.7544C196.647 70.6352 196.673 70.5141 196.701 70.3912C196.755 70.1586 196.81 69.927 196.866 69.6945C196.902 69.5465 196.938 69.3985 196.975 69.2515C197.01 69.1151 197.044 68.9786 197.079 68.8412C197.112 68.7115 197.145 68.5818 197.18 68.453C197.18 68.4482 197.182 68.4444 197.183 68.4396C197.65 68.306 198.136 68.2099 198.614 68.184C199.924 68.1119 201.174 68.5645 201.814 70.199C202.136 71.0244 202.721 71.451 203.481 71.6711C203.894 71.7912 204.358 71.8498 204.861 71.8776C206.257 71.9555 207.389 70.9379 208.639 70.4488C214.435 68.1811 215.959 71.844 218.421 72.7934C220.721 73.6803 222.388 73.4016 223.569 72.7232C224.08 72.4302 224.5 72.0631 224.839 71.6826C225.073 71.4231 225.268 71.157 225.431 70.9052C225.657 70.5545 225.821 70.2307 225.929 69.9847C226.002 69.8204 226.051 69.6916 226.079 69.6128C226.087 69.5888 226.094 69.5696 226.099 69.5552C226.1 69.56 226.101 69.5648 226.102 69.5696C226.135 69.7022 226.167 69.8348 226.198 69.9674C226.212 70.0279 226.228 70.0875 226.241 70.148C226.261 70.2288 226.279 70.3104 226.298 70.3912C228.498 79.9165 212.017 80.0001 211.506 80.0001Z" fill="white"/>
</g>
<path d="M237.54 71V59.64H239.78L243.364 66.2L246.964 59.64H249.124V71H246.82V63.816L244.18 68.632H242.484L239.844 63.816V71H237.54ZM258.956 71.24C258.327 71.24 257.746 71.128 257.212 70.904C256.679 70.68 256.215 70.3707 255.82 69.976C255.426 69.5707 255.116 69.096 254.892 68.552C254.679 68.008 254.572 67.416 254.572 66.776C254.572 66.136 254.684 65.5493 254.908 65.016C255.132 64.472 255.442 63.9973 255.836 63.592C256.242 63.1867 256.711 62.872 257.244 62.648C257.788 62.424 258.38 62.312 259.02 62.312C259.65 62.312 260.231 62.424 260.764 62.648C261.298 62.872 261.762 63.1867 262.156 63.592C262.551 63.9867 262.855 64.456 263.068 65C263.292 65.5333 263.404 66.12 263.404 66.76C263.404 67.4 263.292 67.992 263.068 68.536C262.844 69.08 262.53 69.5547 262.124 69.96C261.73 70.3653 261.26 70.68 260.716 70.904C260.183 71.128 259.596 71.24 258.956 71.24ZM258.988 69.224C259.394 69.224 259.756 69.1173 260.076 68.904C260.396 68.6907 260.647 68.4027 260.828 68.04C261.02 67.6667 261.116 67.2453 261.116 66.776C261.116 66.3067 261.02 65.8907 260.828 65.528C260.647 65.1547 260.396 64.8613 260.076 64.648C259.756 64.4347 259.394 64.328 258.988 64.328C258.583 64.328 258.22 64.4347 257.9 64.648C257.58 64.8613 257.324 65.1547 257.132 65.528C256.951 65.8907 256.86 66.3067 256.86 66.776C256.86 67.2453 256.951 67.6667 257.132 68.04C257.324 68.4027 257.58 68.6907 257.9 68.904C258.22 69.1173 258.583 69.224 258.988 69.224ZM272.859 71.24C272.229 71.24 271.648 71.128 271.115 70.904C270.581 70.68 270.117 70.3707 269.723 69.976C269.328 69.5707 269.019 69.096 268.795 68.552C268.581 68.008 268.475 67.416 268.475 66.776C268.475 66.136 268.587 65.5493 268.811 65.016C269.035 64.472 269.344 63.9973 269.739 63.592C270.144 63.1867 270.613 62.872 271.147 62.648C271.691 62.424 272.283 62.312 272.923 62.312C273.552 62.312 274.133 62.424 274.667 62.648C275.2 62.872 275.664 63.1867 276.059 63.592C276.453 63.9867 276.757 64.456 276.971 65C277.195 65.5333 277.307 66.12 277.307 66.76C277.307 67.4 277.195 67.992 276.971 68.536C276.747 69.08 276.432 69.5547 276.027 69.96C275.632 70.3653 275.163 70.68 274.619 70.904C274.085 71.128 273.499 71.24 272.859 71.24ZM272.891 69.224C273.296 69.224 273.659 69.1173 273.979 68.904C274.299 68.6907 274.549 68.4027 274.731 68.04C274.923 67.6667 275.019 67.2453 275.019 66.776C275.019 66.3067 274.923 65.8907 274.731 65.528C274.549 65.1547 274.299 64.8613 273.979 64.648C273.659 64.4347 273.296 64.328 272.891 64.328C272.485 64.328 272.123 64.4347 271.803 64.648C271.483 64.8613 271.227 65.1547 271.035 65.528C270.853 65.8907 270.763 66.3067 270.763 66.776C270.763 67.2453 270.853 67.6667 271.035 68.04C271.227 68.4027 271.483 68.6907 271.803 68.904C272.123 69.1173 272.485 69.224 272.891 69.224ZM282.619 71V62.552H284.683L284.747 63.64C284.992 63.2347 285.328 62.9147 285.755 62.68C286.192 62.4347 286.688 62.312 287.243 62.312C287.862 62.312 288.4 62.4613 288.859 62.76C289.328 63.048 289.691 63.464 289.947 64.008C290.203 64.552 290.331 65.192 290.331 65.928V71H288.091V66.216C288.091 65.6293 287.958 65.1707 287.691 64.84C287.424 64.4987 287.056 64.328 286.587 64.328C286.246 64.328 285.947 64.408 285.691 64.568C285.435 64.7173 285.232 64.9307 285.083 65.208C284.934 65.4853 284.859 65.8 284.859 66.152V71H282.619Z" fill="#3F414E"/>
<path d="M128.044 71.24C127.361 71.24 126.732 71.1227 126.156 70.888C125.591 70.6427 125.105 70.3013 124.7 69.864C124.305 69.416 124.033 68.8827 123.884 68.264L126.108 67.784C126.247 68.2213 126.487 68.5627 126.828 68.808C127.18 69.0533 127.596 69.176 128.076 69.176C128.417 69.176 128.716 69.1173 128.972 69C129.239 68.872 129.441 68.7013 129.58 68.488C129.729 68.2747 129.804 68.0293 129.804 67.752C129.804 67.4 129.671 67.1173 129.404 66.904C129.137 66.68 128.705 66.4987 128.108 66.36L127.596 66.248C126.423 65.992 125.559 65.5813 125.004 65.016C124.449 64.44 124.172 63.7413 124.172 62.92C124.172 62.408 124.273 61.9387 124.476 61.512C124.679 61.0853 124.956 60.7173 125.308 60.408C125.671 60.088 126.092 59.8427 126.572 59.672C127.052 59.4907 127.569 59.4 128.124 59.4C128.753 59.4 129.34 59.5173 129.884 59.752C130.428 59.9867 130.887 60.3227 131.26 60.76C131.633 61.1973 131.884 61.7147 132.012 62.312L129.82 62.792C129.692 62.3653 129.468 62.04 129.148 61.816C128.839 61.5813 128.476 61.464 128.06 61.464C127.772 61.464 127.511 61.5227 127.276 61.64C127.052 61.7467 126.871 61.9013 126.732 62.104C126.604 62.296 126.54 62.5147 126.54 62.76C126.54 63.1333 126.684 63.4213 126.972 63.624C127.26 63.816 127.687 63.976 128.252 64.104L128.764 64.216C129.927 64.472 130.785 64.8773 131.34 65.432C131.905 65.9867 132.188 66.696 132.188 67.56C132.188 68.104 132.081 68.6 131.868 69.048C131.665 69.496 131.377 69.8853 131.004 70.216C130.631 70.5467 130.193 70.8027 129.692 70.984C129.191 71.1547 128.641 71.24 128.044 71.24ZM139.808 60.264C139.808 60.5093 139.749 60.728 139.632 60.92C139.525 61.112 139.371 61.2667 139.168 61.384C138.976 61.4907 138.763 61.544 138.528 61.544C138.293 61.544 138.075 61.4907 137.872 61.384C137.68 61.2667 137.525 61.112 137.408 60.92C137.301 60.728 137.248 60.5093 137.248 60.264C137.248 60.0187 137.301 59.8 137.408 59.608C137.525 59.416 137.68 59.2667 137.872 59.16C138.075 59.0427 138.293 58.984 138.528 58.984C138.763 58.984 138.976 59.0427 139.168 59.16C139.371 59.2667 139.525 59.416 139.632 59.608C139.749 59.8 139.808 60.0187 139.808 60.264ZM137.408 71V62.552H139.648V71H137.408ZM145.279 71V59.064H147.519V71H145.279ZM157.15 71.24C156.521 71.24 155.94 71.1333 155.406 70.92C154.884 70.696 154.43 70.3867 154.046 69.992C153.662 69.5867 153.364 69.112 153.15 68.568C152.937 68.0133 152.83 67.4107 152.83 66.76C152.83 66.1307 152.937 65.544 153.15 65C153.364 64.456 153.657 63.9867 154.03 63.592C154.414 63.1867 154.862 62.872 155.374 62.648C155.886 62.424 156.441 62.312 157.038 62.312C157.657 62.312 158.217 62.4187 158.718 62.632C159.23 62.8453 159.668 63.1493 160.03 63.544C160.393 63.9387 160.67 64.408 160.862 64.952C161.065 65.496 161.166 66.104 161.166 66.776V67.336H155.102C155.198 67.9653 155.428 68.4613 155.79 68.824C156.153 69.176 156.612 69.352 157.166 69.352C157.55 69.352 157.897 69.2613 158.206 69.08C158.526 68.8987 158.788 68.6373 158.99 68.296L160.99 68.936C160.798 69.416 160.51 69.8267 160.126 70.168C159.742 70.5093 159.294 70.776 158.782 70.968C158.27 71.1493 157.726 71.24 157.15 71.24ZM157.038 64.04C156.548 64.04 156.132 64.2 155.79 64.52C155.46 64.84 155.241 65.2773 155.134 65.832H158.862C158.777 65.2773 158.569 64.84 158.238 64.52C157.918 64.2 157.518 64.04 157.038 64.04ZM166.397 71V62.552H168.461L168.525 63.64C168.77 63.2347 169.106 62.9147 169.533 62.68C169.97 62.4347 170.466 62.312 171.021 62.312C171.639 62.312 172.178 62.4613 172.637 62.76C173.106 63.048 173.469 63.464 173.725 64.008C173.981 64.552 174.109 65.192 174.109 65.928V71H171.869V66.216C171.869 65.6293 171.735 65.1707 171.469 64.84C171.202 64.4987 170.834 64.328 170.365 64.328C170.023 64.328 169.725 64.408 169.469 64.568C169.213 64.7173 169.01 64.9307 168.861 65.208C168.711 65.4853 168.637 65.8 168.637 66.152V71H166.397ZM183.166 71.24C182.58 71.24 182.073 71.128 181.646 70.904C181.23 70.6693 180.905 70.3333 180.67 69.896C180.446 69.4587 180.334 68.9253 180.334 68.296V64.36H178.894V62.552H180.334V59.672H182.574V62.552H184.878V64.36H182.574V68.024C182.574 68.4293 182.66 68.744 182.83 68.968C183.001 69.1813 183.262 69.288 183.614 69.288C183.796 69.288 183.988 69.2613 184.19 69.208C184.404 69.1547 184.606 69.0853 184.798 69L185.198 70.68C184.921 70.8507 184.612 70.984 184.27 71.08C183.929 71.1867 183.561 71.24 183.166 71.24Z" fill="#3F414E"/>
<path d="M211.242 400.597C250.468 400.597 282.267 399.357 282.267 397.827C282.267 396.297 250.468 395.057 211.242 395.057C172.015 395.057 140.216 396.297 140.216 397.827C140.216 399.357 172.015 400.597 211.242 400.597Z" fill="#F9F0E3"/>
<path opacity="0.5" d="M86.2815 395.93C111.182 395.93 131.368 394.396 131.368 392.505C131.368 390.614 111.182 389.081 86.2815 389.081C61.3808 389.081 41.1948 390.614 41.1948 392.505C41.1948 394.396 61.3808 395.93 86.2815 395.93Z" fill="#F9EAD4"/>
<path d="M369.659 400.604C369.659 401.76 354.31 402.691 335.373 402.691C316.437 402.691 301.088 401.76 301.088 400.604C301.088 399.448 316.437 398.518 335.373 398.518C354.303 398.518 369.659 399.448 369.659 400.604Z" fill="#F9F0E3"/>
<path d="M286.568 234.824L284.984 237.558H288.144L286.568 234.824Z" fill="#E7CCA8"/>
<path d="M286.568 239.84L284.984 242.574H288.144L286.568 239.84Z" fill="#E7CCA8"/>
<path d="M289.844 236.881L288.376 239.84H291.304L289.844 236.881Z" fill="#E7CCA8"/>
<path d="M48.6184 251.131L47.0349 253.872H50.1947L48.6184 251.131Z" fill="#E7CCA8"/>
<path d="M48.6184 256.147L47.0349 258.881H50.1947L48.6184 256.147Z" fill="#E7CCA8"/>
<path d="M51.8945 253.188L50.4272 256.147H53.3546L51.8945 253.188Z" fill="#E7CCA8"/>
<path d="M283.408 355.9L281.832 358.634H284.984L283.408 355.9Z" fill="#E7CCA8"/>
<path d="M283.408 360.909L281.832 363.65H284.984L283.408 360.909Z" fill="#E7CCA8"/>
<path d="M286.684 357.951L285.224 360.909H288.144L286.684 357.951Z" fill="#E7CCA8"/>
<path d="M221.142 215.507C221.142 217.434 219.588 218.99 217.663 218.99C215.738 218.99 214.183 217.434 214.183 215.507C214.183 213.581 215.738 212.025 217.663 212.025C219.58 212.025 221.142 213.588 221.142 215.507Z" stroke="white" stroke-miterlimit="10"/>
<path d="M371.482 363.636H299.374C298.306 363.636 297.442 362.771 297.442 361.702C297.442 360.633 298.306 359.768 299.374 359.768H371.482C372.55 359.768 373.414 360.633 373.414 361.702C373.414 362.771 372.55 363.636 371.482 363.636Z" fill="#FEE6C6"/>
<path d="M309.333 397.827C308.25 397.827 307.357 397.165 307.313 396.322L305.439 362.443H313.226L311.352 396.322C311.301 397.165 310.415 397.827 309.333 397.827Z" fill="#FEE6C6"/>
<path d="M362.221 397.827C361.138 397.827 360.245 397.165 360.201 396.322L358.327 362.443H366.114L364.24 396.322C364.189 397.165 363.303 397.827 362.221 397.827Z" fill="#FEE6C6"/>
<path d="M335.432 397.827C334.349 397.827 333.456 397.165 333.412 396.322L331.538 362.443H339.325L337.451 396.322C337.407 397.165 336.514 397.827 335.432 397.827Z" fill="#FEE6C6"/>
<path d="M351.608 352.997C352.646 348.366 349.736 343.77 345.109 342.732C340.482 341.693 335.89 344.606 334.852 349.237C333.815 353.868 336.724 358.464 341.352 359.502C345.979 360.541 350.571 357.628 351.608 352.997Z" fill="#F9D8AC"/>
<path d="M347.555 344.057H338.7C338.206 344.057 337.807 343.657 337.807 343.163C337.807 342.669 338.206 342.269 338.7 342.269H347.555C348.049 342.269 348.448 342.669 348.448 343.163C348.448 343.657 348.049 344.057 347.555 344.057Z" fill="#F9D8AC"/>
<path d="M339.311 327.99C339.623 328.136 339.993 328.688 340.117 329.451C340.24 330.215 340.08 330.869 339.819 331.095C339.514 330.956 339.136 330.397 339.013 329.633C338.889 328.87 339.071 328.223 339.311 327.99Z" fill="#F9D8AC"/>
<path d="M339.892 331.019L339.713 331.049L340.518 335.948L340.697 335.919L339.892 331.019Z" fill="#F9D8AC"/>
<path d="M341.889 330.884C341.555 330.862 341.003 331.174 340.596 331.792C340.189 332.418 340.081 333.079 340.219 333.414C340.545 333.443 341.105 333.123 341.512 332.505C341.926 331.887 342.013 331.218 341.889 330.884Z" fill="#F9D8AC"/>
<path d="M337.792 331.56C338.105 331.429 338.722 331.545 339.311 332.003C339.899 332.461 340.211 333.057 340.189 333.421C339.892 333.559 339.26 333.435 338.671 332.977C338.083 332.519 337.785 331.916 337.792 331.56Z" fill="#F9D8AC"/>
<path d="M338.185 333.959C338.497 333.828 339.114 333.952 339.703 334.402C340.291 334.86 340.603 335.457 340.582 335.82C340.284 335.958 339.652 335.835 339.063 335.377C338.475 334.919 338.177 334.315 338.185 333.959Z" fill="#F9D8AC"/>
<path d="M342.289 333.29C341.954 333.268 341.402 333.581 340.996 334.199C340.589 334.817 340.48 335.485 340.618 335.82C340.945 335.849 341.504 335.529 341.911 334.911C342.318 334.286 342.412 333.617 342.289 333.29Z" fill="#F9D8AC"/>
<path d="M340.676 335.811L340.497 335.84L341.302 340.74L341.481 340.71L340.676 335.811Z" fill="#F9D8AC"/>
<path d="M342.681 335.675C342.347 335.653 341.795 335.966 341.388 336.584C340.981 337.209 340.872 337.87 341.01 338.205C341.337 338.234 341.896 337.921 342.303 337.296C342.71 336.678 342.804 336.009 342.681 335.675Z" fill="#F9D8AC"/>
<path d="M338.577 336.351C338.889 336.22 339.507 336.336 340.095 336.794C340.683 337.252 340.996 337.849 340.974 338.212C340.676 338.35 340.044 338.227 339.456 337.769C338.867 337.311 338.57 336.707 338.577 336.351Z" fill="#F9D8AC"/>
<path d="M338.976 338.757C339.289 338.626 339.906 338.75 340.495 339.201C341.083 339.659 341.395 340.255 341.374 340.619C341.076 340.757 340.444 340.633 339.855 340.175C339.267 339.717 338.962 339.106 338.976 338.757Z" fill="#F9D8AC"/>
<path d="M343.073 338.081C342.739 338.059 342.187 338.372 341.78 338.99C341.374 339.608 341.265 340.277 341.403 340.611C341.729 340.64 342.289 340.32 342.696 339.702C343.11 339.084 343.197 338.408 343.073 338.081Z" fill="#F9D8AC"/>
<path d="M341.467 340.601L341.288 340.63L342.093 345.53L342.272 345.5L341.467 340.601Z" fill="#F9D8AC"/>
<path d="M346.996 331.531C347.243 331.749 347.417 332.316 347.293 332.978C347.17 333.639 346.814 334.119 346.494 334.221C346.247 334.01 346.073 333.436 346.189 332.774C346.32 332.12 346.691 331.647 346.996 331.531Z" fill="#F9D8AC"/>
<path d="M346.419 334.176L345.638 338.423L345.817 338.456L346.597 334.209L346.419 334.176Z" fill="#F9D8AC"/>
<path d="M348.521 334.715C348.209 334.592 347.599 334.672 347.01 335.042C346.429 335.421 346.117 335.929 346.146 336.242C346.444 336.373 347.068 336.286 347.657 335.915C348.238 335.537 348.528 335.021 348.521 334.715Z" fill="#F9D8AC"/>
<path d="M344.432 333.959C344.766 333.952 345.31 334.243 345.724 334.803C346.139 335.362 346.247 335.951 346.109 336.235C345.783 336.249 345.231 335.951 344.817 335.391C344.402 334.832 344.315 334.243 344.432 333.959Z" fill="#F9D8AC"/>
<path d="M344.054 336.046C344.388 336.038 344.933 336.329 345.347 336.889C345.761 337.449 345.87 338.038 345.732 338.321C345.405 338.336 344.853 338.038 344.439 337.478C344.025 336.918 343.93 336.329 344.054 336.046Z" fill="#F9D8AC"/>
<path d="M348.136 336.794C347.824 336.671 347.214 336.751 346.625 337.122C346.044 337.5 345.732 338.008 345.761 338.321C346.059 338.452 346.683 338.365 347.272 337.994C347.853 337.623 348.151 337.1 348.136 336.794Z" fill="#F9D8AC"/>
<path d="M345.66 338.332L344.879 342.579L345.058 342.612L345.838 338.364L345.66 338.332Z" fill="#F9D8AC"/>
<path d="M347.758 338.866C347.446 338.743 346.836 338.823 346.247 339.193C345.666 339.571 345.354 340.08 345.383 340.393C345.681 340.524 346.306 340.437 346.894 340.066C347.475 339.695 347.766 339.179 347.758 338.866Z" fill="#F9D8AC"/>
<path d="M343.669 338.118C344.003 338.11 344.548 338.401 344.962 338.961C345.376 339.521 345.485 340.11 345.347 340.393C345.02 340.408 344.468 340.11 344.054 339.55C343.64 338.99 343.553 338.401 343.669 338.118Z" fill="#F9D8AC"/>
<path d="M344.891 342.484L344.111 346.731L344.289 346.764L345.07 342.517L344.891 342.484Z" fill="#F9D8AC"/>
<path d="M353.083 290.338C353.461 290.578 353.86 291.342 353.904 292.352C353.954 293.355 353.642 294.177 353.279 294.431C352.901 294.213 352.502 293.428 352.451 292.418C352.407 291.414 352.741 290.607 353.083 290.338Z" fill="#FEE6C6"/>
<path d="M353.394 294.336L353.155 294.348L353.467 300.803L353.706 300.791L353.394 294.336Z" fill="#FEE6C6"/>
<path d="M355.988 294.468C355.56 294.388 354.804 294.708 354.18 295.45C353.555 296.191 353.322 297.042 353.453 297.492C353.875 297.587 354.637 297.252 355.262 296.511C355.879 295.769 356.097 294.919 355.988 294.468Z" fill="#FEE6C6"/>
<path d="M350.591 294.73C351.013 294.613 351.797 294.853 352.487 295.529C353.177 296.206 353.497 297.027 353.41 297.492C353.003 297.623 352.204 297.369 351.514 296.693C350.816 296.017 350.519 295.188 350.591 294.73Z" fill="#FEE6C6"/>
<path d="M350.744 297.892C351.165 297.776 351.949 298.016 352.64 298.692C353.33 299.368 353.649 300.189 353.562 300.655C353.155 300.786 352.356 300.531 351.666 299.855C350.969 299.179 350.678 298.35 350.744 297.892Z" fill="#FEE6C6"/>
<path d="M356.141 297.63C355.712 297.55 354.957 297.87 354.332 298.612C353.707 299.353 353.475 300.204 353.606 300.655C354.027 300.749 354.79 300.415 355.414 299.673C356.032 298.932 356.25 298.081 356.141 297.63Z" fill="#FEE6C6"/>
<path d="M353.687 300.682L353.448 300.693L353.759 307.149L353.998 307.137L353.687 300.682Z" fill="#FEE6C6"/>
<path d="M356.293 300.785C355.865 300.705 355.109 301.025 354.485 301.767C353.86 302.508 353.628 303.359 353.758 303.81C354.18 303.904 354.942 303.57 355.567 302.828C356.184 302.087 356.402 301.229 356.293 300.785Z" fill="#FEE6C6"/>
<path d="M350.896 301.047C351.318 300.931 352.102 301.171 352.792 301.847C353.482 302.523 353.802 303.344 353.715 303.81C353.308 303.941 352.509 303.686 351.819 303.01C351.121 302.327 350.824 301.498 350.896 301.047Z" fill="#FEE6C6"/>
<path d="M351.049 304.21C351.47 304.093 352.255 304.333 352.945 305.009C353.635 305.685 353.954 306.507 353.867 306.972C353.46 307.103 352.661 306.849 351.971 306.173C351.274 305.496 350.976 304.668 351.049 304.21Z" fill="#FEE6C6"/>
<path d="M356.446 303.948C356.017 303.868 355.262 304.188 354.637 304.929C354.013 305.671 353.78 306.522 353.911 306.972C354.332 307.067 355.095 306.732 355.72 305.991C356.337 305.249 356.555 304.399 356.446 303.948Z" fill="#FEE6C6"/>
<path d="M354.005 306.971L353.766 306.983L354.078 313.438L354.317 313.426L354.005 306.971Z" fill="#FEE6C6"/>
<path d="M358.502 359.681H351.746C349.051 359.681 346.923 357.376 347.141 354.686L350.649 311.538H359.591L363.1 354.686C363.325 357.376 361.196 359.681 358.502 359.681Z" fill="#FEE6C6"/>
<path d="M360.514 311.669H349.734C349.102 311.669 348.594 311.16 348.594 310.527C348.594 309.895 349.102 309.386 349.734 309.386H360.514C361.146 309.386 361.654 309.895 361.654 310.527C361.654 311.153 361.146 311.669 360.514 311.669Z" fill="#FEE6C6"/>
<path d="M356.475 320.226C356.577 316.605 356.758 312.985 356.947 309.372C357.136 305.758 357.39 302.145 357.615 298.532C357.891 294.919 358.138 291.305 358.451 287.7L358.93 282.291C359.119 280.488 359.279 278.685 359.482 276.882C359.439 278.692 359.351 280.502 359.286 282.312L359.01 287.736C358.821 291.349 358.567 294.962 358.342 298.576C358.058 302.189 357.819 305.802 357.506 309.408C357.194 313.014 356.874 316.62 356.475 320.226Z" fill="#FEE6C6"/>
<path d="M356.816 316.082C356.271 308.848 356.061 301.607 355.93 294.366C355.828 287.125 355.814 279.884 356.133 272.636C356.678 279.869 356.889 287.11 357.02 294.352C357.114 301.593 357.129 308.834 356.816 316.082Z" fill="#FEE6C6"/>
<path d="M355.894 322.872C356.344 319.273 356.867 315.689 357.412 312.112C357.949 308.528 358.552 304.959 359.119 301.382C359.744 297.812 360.339 294.242 360.993 290.68L361.988 285.337C362.344 283.563 362.678 281.782 363.056 280.008C362.838 281.803 362.577 283.599 362.337 285.395L361.545 290.767C361.008 294.352 360.405 297.921 359.838 301.498C359.213 305.068 358.618 308.637 357.964 312.2C357.303 315.769 356.642 319.324 355.894 322.872Z" fill="#FEE6C6"/>
<path d="M354.557 272.745C354.557 273.167 354.216 273.508 353.795 273.508C353.373 273.508 353.032 273.167 353.032 272.745C353.032 272.323 353.373 271.981 353.795 271.981C354.216 271.981 354.557 272.323 354.557 272.745Z" stroke="#FEE6C6" stroke-miterlimit="10"/>
<path d="M358.647 270.876C359.658 270.876 360.477 270.056 360.477 269.044C360.477 268.033 359.658 267.212 358.647 267.212C357.636 267.212 356.816 268.033 356.816 269.044C356.816 270.056 357.636 270.876 358.647 270.876Z" stroke="#FEE6C6" stroke-miterlimit="10"/>
<path d="M362.33 278.481C362.663 278.481 362.932 278.211 362.932 277.877C362.932 277.544 362.663 277.274 362.33 277.274C361.997 277.274 361.727 277.544 361.727 277.877C361.727 278.211 361.997 278.481 362.33 278.481Z" stroke="#FEE6C6" stroke-miterlimit="10"/>
<path d="M364.393 290.906C364.393 291.218 364.138 291.473 363.826 291.473C363.514 291.473 363.259 291.218 363.259 290.906C363.259 290.593 363.514 290.339 363.826 290.339C364.138 290.339 364.393 290.593 364.393 290.906Z" stroke="#FEE6C6" stroke-miterlimit="10"/>
<path d="M349.894 286.115C350.439 286.115 350.882 285.672 350.882 285.126C350.882 284.58 350.439 284.137 349.894 284.137C349.348 284.137 348.906 284.58 348.906 285.126C348.906 285.672 349.348 286.115 349.894 286.115Z" stroke="#FEE6C6" stroke-miterlimit="10"/>
<path d="M326.163 331.095H300.986V358.547H326.163V331.095Z" fill="#F9D8AC"/>
<path d="M323.344 334.17H303.812V355.471H323.344V334.17Z" fill="#FEE6C6"/>
<path d="M72.5457 205.831H68.4924V385.213H72.5457V205.831Z" fill="#FEE6C6"/>
<path d="M91.199 391.764H49.8459C49.8459 387.336 59.1074 383.752 70.5261 383.752C81.9449 383.752 91.199 387.336 91.199 391.764Z" fill="#FEE6C6"/>
<path d="M98.9642 208.295H42.0737L43.127 204.602L43.3376 203.875L45.248 197.187L45.4587 196.46L55.875 160H86.6157L95.9352 196.46L96.124 197.187L97.831 203.875L98.0199 204.602L98.9642 208.295Z" fill="#FEE6C6"/>
<path d="M45.8074 198.822L43.8679 202.181H47.7396L45.8074 198.822Z" fill="#E5CAA6"/>
<path d="M50.1946 202.181L48.2551 198.822H52.134L50.1946 202.181Z" fill="#E5CAA6"/>
<path d="M54.0662 198.822L52.134 202.181H56.0057L54.0662 198.822Z" fill="#E5CAA6"/>
<path d="M58.4609 202.181L56.5215 198.822H60.3931L58.4609 202.181Z" fill="#E5CAA6"/>
<path d="M62.3325 198.822L60.3931 202.181H64.2647L62.3325 198.822Z" fill="#E5CAA6"/>
<path d="M66.72 202.181L64.7805 198.822H68.6594L66.72 202.181Z" fill="#E5CAA6"/>
<path d="M70.5916 198.822L68.6594 202.181H72.5311L70.5916 198.822Z" fill="#E5CAA6"/>
<path d="M74.9788 202.181L73.0466 198.822H76.9183L74.9788 202.181Z" fill="#E5CAA6"/>
<path d="M78.8579 198.822L76.9185 202.181H80.7901L78.8579 198.822Z" fill="#E5CAA6"/>
<path d="M83.2451 202.181L81.3057 198.822H85.1773L83.2451 202.181Z" fill="#E5CAA6"/>
<path d="M87.1169 198.822L85.1775 202.181H89.0564L87.1169 198.822Z" fill="#E5CAA6"/>
<path d="M91.5042 202.181L89.572 198.822H93.4436L91.5042 202.181Z" fill="#E5CAA6"/>
<path d="M95.3758 198.822L93.4436 202.181H97.3152L95.3758 198.822Z" fill="#E5CAA6"/>
<path d="M96.124 197.187H45.248L45.4587 196.46H95.9352L96.124 197.187Z" fill="#E5CAA6"/>
<path d="M98.0199 204.602H43.127L43.3376 203.875H97.831L98.0199 204.602Z" fill="#E5CAA6"/>
<path d="M105.385 314.707C106.867 308.964 110.055 303.831 113.331 298.887C116.237 294.496 119.281 290.127 123.116 286.521C126.951 282.908 131.68 280.065 136.881 279.265C135.61 283.366 134.339 287.466 133.067 291.566C131.796 295.667 130.481 299.854 127.975 303.337C125.353 306.972 121.554 309.632 117.501 311.537C113.44 313.442 109.097 314.642 104.775 315.834" fill="#66A986"/>
<path d="M105.654 314.781C107.841 307.009 112.591 299.942 117.385 293.523C119.862 290.2 122.586 287.074 125.884 284.552C127.446 283.352 135.414 278.067 136.206 280.56C136.555 281.665 134.622 285.657 134.296 286.711C133.685 288.681 133.09 290.651 132.465 292.614C131.296 296.3 130.024 300.03 127.751 303.199C122.405 310.622 113.078 313.261 104.71 315.573C104.376 315.668 104.514 316.191 104.855 316.097C113.034 313.836 121.911 311.291 127.497 304.413C133.01 297.63 134.63 287.467 137.15 279.339C137.216 279.128 137.005 278.968 136.816 279.004C128.949 280.444 122.855 285.613 118.039 291.771C112.729 298.561 107.485 306.267 105.131 314.643C105.029 314.97 105.552 315.115 105.654 314.781Z" fill="#66A986"/>
<path d="M96.6689 334.01C102.407 321.738 108.139 309.459 113.877 297.187C114.175 296.554 113.23 296.002 112.933 296.634C107.194 308.906 101.463 321.186 95.7246 333.457C95.4341 334.09 96.3711 334.643 96.6689 334.01Z" fill="#80B996"/>
<path d="M97.497 307.598C97.8312 294.737 102.683 281.738 105.916 269.372C106.003 269.03 105.48 268.884 105.393 269.226C102.146 281.658 97.2937 294.664 96.9595 307.598C96.945 307.947 97.4898 307.947 97.497 307.598Z" fill="#80B996"/>
<path d="M88.8383 310.288C83.3614 305.417 77.8409 300.495 73.5479 294.548C69.2623 288.601 66.2478 281.469 66.4875 274.141C69.9814 279.688 77.3614 281.76 81.0006 287.212C82.1992 289.008 82.9183 291.08 83.6229 293.123C85.5987 298.845 87.5817 304.573 89.5575 310.295" fill="#66A986"/>
<path d="M89.0272 310.099C83.2815 304.988 77.4414 299.812 73.0758 293.414C70.9039 290.23 69.1243 286.747 68.0057 283.054C67.4246 281.135 67.0323 279.172 66.8434 277.18C66.6836 275.464 66.1752 274.846 67.4463 275.9C69.2478 277.398 70.795 279.012 72.7272 280.379C75.3785 282.247 78.1823 283.999 80.1799 286.609C82.7585 289.975 83.8045 294.512 85.1774 298.481C86.5503 302.443 87.9159 306.406 89.2887 310.368C89.405 310.695 89.9279 310.557 89.8117 310.222C88.2863 305.817 86.7682 301.418 85.2428 297.013C84.0442 293.537 83.1072 289.706 80.9353 286.674C77.1581 281.396 70.4027 279.39 66.7127 273.995C66.5674 273.777 66.2042 273.85 66.2042 274.134C66.088 289.735 77.8336 300.858 88.635 310.477C88.9037 310.717 89.296 310.331 89.0272 310.099Z" fill="#66A986"/>
<path d="M78.1897 283.556C87.146 301.811 93.0297 321.375 95.6229 341.549C95.7101 342.233 96.7997 342.247 96.7125 341.549C94.0975 321.178 88.1775 301.447 79.1267 283.003C78.8217 282.37 77.8774 282.923 78.1897 283.556Z" fill="#80B996"/>
<path d="M94.3512 267.197C89.8694 251.472 90.0002 234.459 94.7289 218.8C98.0195 223.533 100.54 228.803 102.167 234.329C103.983 240.486 104.688 247.037 103.62 253.369C102.552 259.701 99.632 265.801 94.9469 270.185" fill="#66A986"/>
<path d="M94.6133 267.125C92.3179 258.823 91.1847 250.266 91.3808 241.651C91.4898 237.034 91.9547 232.432 92.7973 227.888C93.1605 225.933 93.5963 223.992 94.0903 222.065C94.9401 218.786 95.5358 220.407 96.7997 222.588C105.204 237.041 107.666 257.347 94.744 269.997C94.4898 270.244 94.8748 270.629 95.129 270.382C109.453 256.358 105.168 233.741 94.9547 218.663C94.8239 218.474 94.5261 218.495 94.4535 218.728C89.7973 234.599 89.6738 251.327 94.0757 267.27C94.1847 267.605 94.7077 267.46 94.6133 267.125Z" fill="#66A986"/>
<path d="M107.027 310.288C105.836 302.378 108.378 294.264 112.497 287.409C116.615 280.553 122.245 274.751 127.824 269.022C129.182 279.942 126.865 291.291 121.337 300.8C119.819 303.417 118.017 305.94 115.606 307.765C113.194 309.59 110.085 310.666 107.114 310.128" fill="#80B996"/>
<path d="M107.303 310.288C106.264 302.022 108.749 294.024 113.063 287.009C115.257 283.446 117.872 280.168 120.64 277.034C121.896 275.617 123.189 274.221 124.497 272.847C125.056 272.258 125.608 271.516 126.247 271.022C127.228 270.266 127.104 269.735 127.729 270.84C128.325 271.88 127.925 274.541 127.911 275.726C127.889 277.558 127.773 279.39 127.562 281.215C127.083 285.228 126.131 289.212 124.707 292.999C121.896 300.495 116.615 310.942 107.1 309.859C106.751 309.822 106.758 310.368 107.1 310.404C115.816 311.4 120.988 302.959 124.046 296.038C127.809 287.54 129.109 278.234 128.078 269.023C128.056 268.804 127.795 268.645 127.613 268.826C116.674 280.08 104.608 293.319 106.744 310.288C106.802 310.629 107.347 310.637 107.303 310.288Z" fill="#80B996"/>
<path d="M98.5567 296.147C97.8812 286.477 99.8279 276.764 103.009 267.604C106.191 258.444 110.593 249.771 114.98 241.119C117.893 251.014 118.823 261.65 116.368 271.668C113.913 281.686 107.847 291.007 98.9781 296.256" fill="#80B996"/>
<path d="M98.8334 296.147C98.2596 286.18 100.192 276.387 103.511 267.023C105.276 262.043 107.397 257.194 109.671 252.425C110.761 250.128 111.894 247.852 113.034 245.584C113.165 245.322 114.32 242.479 114.596 242.494C115.511 242.53 115.569 244.304 115.758 245.097C120.153 263.701 116.129 285.38 98.8407 296.024C98.5428 296.205 98.8189 296.678 99.1167 296.496C118.09 284.82 120.894 260.895 115.25 241.047C115.192 240.829 114.857 240.764 114.748 240.982C106.01 258.219 97.1409 276.285 98.2886 296.147C98.3104 296.496 98.8552 296.504 98.8334 296.147Z" fill="#80B996"/>
<path d="M92.6811 261.331C97.0322 286.682 97.7949 312.483 94.9838 338.052C94.9039 338.75 96.0007 338.743 96.0733 338.052C98.8917 312.389 98.0927 286.485 93.7344 261.04C93.6109 260.349 92.5649 260.64 92.6811 261.331Z" fill="#80B996"/>
<path d="M94.4961 269.596C90.3194 266.106 86.6802 260.181 85.6996 254.83C84.719 249.48 85.0096 243.976 85.3437 238.545C85.6851 233.115 86.0701 227.633 85.2856 222.246C89.3606 227.735 92.7891 233.704 95.484 239.992C97.5252 244.754 99.1595 249.778 99.3411 254.954C99.5227 260.13 98.1281 265.51 94.7068 269.4" fill="#80B996"/>
<path d="M94.6931 269.408C87.9377 263.446 85.3445 255.558 85.3082 246.725C85.2936 242.632 85.6641 238.553 85.8675 234.475C85.9692 232.432 86.0418 230.389 86.0128 228.346C86.0055 227.757 85.4462 223.642 85.8094 223.424C87.1169 222.639 96.3637 242.814 96.8795 244.297C99.7705 252.577 100.395 262.05 94.5187 269.212C94.3008 269.481 94.6785 269.866 94.9037 269.597C106.548 255.406 94.4824 234.38 85.5188 222.116C85.3808 221.927 84.974 221.956 85.0103 222.254C86.2234 231.77 84.1605 241.272 84.9087 250.796C85.4898 258.219 88.6931 264.849 94.3008 269.793C94.5696 270.026 94.9546 269.64 94.6931 269.408Z" fill="#80B996"/>
<path d="M88.3582 306.928C90.4647 299.52 89.2226 289.422 85.6924 282.573C82.1621 275.732 76.6634 270.069 70.5618 265.372C70.8959 273.267 71.5061 281.272 74.1356 288.724C76.7724 296.183 81.305 303.373 88.3582 306.928Z" fill="#80B996"/>
<path d="M88.6204 307.002C93.0223 290.128 83.6083 275.246 70.7586 265.184C70.5915 265.053 70.2792 265.118 70.2937 265.38C70.962 280.466 73.4026 299.23 88.2209 307.169C88.5332 307.336 88.802 306.863 88.4969 306.696C81.7633 303.09 77.4413 296.685 74.7755 289.67C73.4026 286.056 72.5237 282.269 71.9426 278.452C71.5503 275.864 71.3034 273.261 71.1218 270.651C71.0637 269.8 70.8966 268.863 70.962 268.012C71.0564 266.776 70.5843 266.42 71.8046 266.703C73.0322 266.987 75.037 269.466 75.9305 270.317C77.2525 271.574 78.5164 272.897 79.7077 274.279C82.3662 277.361 84.7124 280.793 86.3032 284.551C89.2378 291.458 90.0005 299.579 88.0974 306.856C88.0102 307.198 88.5332 307.343 88.6204 307.002Z" fill="#80B996"/>
<path d="M119.143 364.835C119.143 377.136 114.371 387.853 107.318 393.429H85.0758C78.0226 387.853 73.2502 377.136 73.2502 364.835C73.2502 353.341 77.4197 343.229 83.7174 337.398H108.669C114.974 343.229 119.143 353.334 119.143 364.835Z" fill="#FEE6C6"/>
<path d="M85.853 349.27L79.8821 359.63H91.8311L85.853 349.27Z" stroke="#E6CAA6" stroke-miterlimit="10"/>
<path d="M85.853 351.8L82.0613 358.372H89.6447L85.853 351.8Z" stroke="#E6CAA6" stroke-width="0.5" stroke-miterlimit="10"/>
<path d="M94.4825 383.287L87.2622 387.46V379.121L94.4825 383.287Z" stroke="#E6CAA6" stroke-width="0.75" stroke-miterlimit="10"/>
<path d="M92.0854 383.287L88.4607 385.381V381.193L92.0854 383.287Z" stroke="#E6CAA6" stroke-width="0.5" stroke-miterlimit="10"/>
<path d="M104.608 340.444L98.8262 350.47H110.397L104.608 340.444Z" stroke="#E6CAA6" stroke-miterlimit="10"/>
<path d="M104.608 344.247L102.117 348.565H107.107L104.608 344.247Z" stroke="#E6CAA6" stroke-width="0.5" stroke-miterlimit="10"/>
<path d="M104.608 384.472L97.9692 369.197H111.255L104.608 384.472Z" stroke="#E6CAA6" stroke-miterlimit="10"/>
<path d="M104.608 380.75L100.395 371.059H108.829L104.608 380.75Z" stroke="#E6CAA6" stroke-width="0.5" stroke-miterlimit="10"/>
<path d="M82.5916 371.56C82.5916 370.543 83.4196 369.714 84.4366 369.714C85.4535 369.714 86.2816 370.543 86.2816 371.56C86.2816 372.578 85.4535 373.407 84.4366 373.407C83.4196 373.407 82.5916 372.578 82.5916 371.56Z" stroke="#E6CAA6" stroke-miterlimit="10"/>
<path d="M104.608 362.254C106.245 362.254 107.572 360.926 107.572 359.288C107.572 357.65 106.245 356.322 104.608 356.322C102.971 356.322 101.645 357.65 101.645 359.288C101.645 360.926 102.971 362.254 104.608 362.254Z" stroke="#E6CAA6" stroke-miterlimit="10"/>
<path d="M92.6664 344.894C93.3043 344.894 93.8214 344.376 93.8214 343.738C93.8214 343.099 93.3043 342.582 92.6664 342.582C92.0286 342.582 91.5115 343.099 91.5115 343.738C91.5115 344.376 92.0286 344.894 92.6664 344.894Z" stroke="#E6CAA6" stroke-miterlimit="10"/>
<g opacity="0.25">
<path opacity="0.25" d="M110.34 339.114C106.359 358.794 97.2356 377.42 84.0735 392.571C84.4004 392.862 84.7345 393.16 85.0759 393.429H107.318C114.371 387.853 119.143 377.136 119.143 364.835C119.143 354.388 115.7 345.097 110.34 339.114Z" fill="#FEE6C6"/>
</g>
<path d="M108.633 337.398H83.7611C83.0057 337.398 82.3955 336.787 82.3955 336.031V335.748C82.3955 334.992 83.0057 334.381 83.7611 334.381H108.633C109.388 334.381 109.998 334.992 109.998 335.748V336.031C110.005 336.787 109.388 337.398 108.633 337.398Z" fill="#F9D8AC"/>
<path d="M110.216 304.85C110.913 302.48 111.792 300.16 112.773 297.885C113.746 295.609 114.865 293.392 116.063 291.225C117.284 289.066 118.591 286.965 120.029 284.951C120.756 283.948 121.489 282.952 122.252 281.978C123.037 281.018 123.814 280.066 124.649 279.15C124.3 279.659 123.944 280.168 123.581 280.662L122.535 282.189C121.838 283.207 121.155 284.232 120.494 285.264C119.172 287.343 117.894 289.437 116.695 291.582C115.482 293.719 114.363 295.907 113.274 298.118C112.192 300.335 111.196 302.589 110.216 304.85Z" fill="#66A986"/>
<path d="M92.7683 263.345C92.3688 261.113 92.0492 258.873 91.7441 256.634C91.4317 254.395 91.1702 252.149 90.9087 249.909C90.669 247.663 90.4293 245.416 90.2405 243.163L89.9644 239.782C89.8991 238.655 89.8119 237.521 89.7683 236.394C89.9717 237.507 90.1315 238.626 90.3204 239.746L90.7925 243.105C91.1049 245.344 91.3664 247.59 91.6279 249.837C91.8676 252.083 92.1073 254.33 92.2961 256.591C92.4923 258.83 92.6666 261.084 92.7683 263.345Z" fill="#66A986"/>
<path d="M75.72 276.031C76.9548 277.957 78.0517 279.964 79.0831 282.007C80.1219 284.05 81.0371 286.143 81.8942 288.274C82.7296 290.404 83.4996 292.563 84.1533 294.759C84.4729 295.856 84.7853 296.961 85.0685 298.066C85.33 299.179 85.5988 300.291 85.8095 301.418L84.7271 298.168C84.3712 297.085 84.0008 296.009 83.623 294.933C82.8531 292.788 82.0686 290.651 81.226 288.543C80.3979 286.427 79.4972 284.333 78.5892 282.247C77.6594 280.16 76.6933 278.103 75.72 276.031Z" fill="#66A986"/>
<path d="M101.833 286.885C102.974 284.115 104.107 281.353 105.175 278.561C106.243 275.769 107.296 272.978 108.24 270.149C109.243 267.336 110.136 264.486 111.008 261.636C111.444 260.211 111.865 258.779 112.279 257.34L113.507 253.021C113.252 254.497 112.933 255.958 112.62 257.427C112.279 258.888 111.916 260.342 111.545 261.789C110.775 264.69 109.875 267.547 108.923 270.389C107.921 273.21 106.867 276.024 105.683 278.779C104.507 281.52 103.243 284.239 101.833 286.885Z" fill="#66A986"/>
<path d="M237.936 257.652H182.927C169.605 257.652 158.804 268.463 158.804 281.796V340.822H262.067V281.796C262.067 268.463 251.265 257.652 237.936 257.652Z" fill="#5C6193"/>
<path d="M249.842 327.83H171.021V340.822H249.842V327.83Z" fill="#4E5567"/>
<path d="M249.842 340.822H164.913V373.843H249.842V340.822Z" fill="#8E97FD"/>
<path d="M256.568 378.736H164.303C161.6 378.736 159.414 376.548 159.414 373.843H261.457C261.457 376.548 259.263 378.736 256.568 378.736Z" fill="#3F414E"/>
<path d="M161.862 394.025H158.804L164.302 378.736H168.581L161.862 394.025Z" fill="#3F414E"/>
<path d="M259.009 394.025H262.067L256.568 378.736H252.29L259.009 394.025Z" fill="#3F414E"/>
<path d="M150.044 267.125C147.087 265.155 144.603 262.349 143.433 258.99C142.264 255.631 142.526 251.705 144.509 248.753C146.492 245.802 150.276 244.042 153.741 244.835C153.886 240.153 158.186 236.743 162.349 234.599C166.932 232.236 171.719 230.869 176.404 233.014C179.012 234.213 181.758 236.162 183.138 238.684C184.518 241.2 185.339 243.977 186.138 246.74C189.414 244.791 193.874 245.089 196.866 247.452C199.859 249.815 201.174 254.09 200.041 257.732C203.745 256.162 208.234 255.464 211.641 257.608C215.222 259.862 216.457 264.493 216.704 268.724C216.915 272.359 216.551 276.213 214.488 279.208C212.048 282.756 207.726 284.428 203.636 285.773C196.561 288.092 189.276 290.033 181.83 290.251C174.385 290.469 166.714 288.855 160.612 284.588C154.504 280.32 150.196 273.166 150.414 265.715" fill="#4E5567"/>
<path d="M146.143 272.417C142.438 272.614 138.923 274.962 137.317 278.314C135.712 281.665 136.075 285.874 138.233 288.892C135.153 288.935 132.167 290.767 130.729 293.493C129.291 296.22 129.472 299.717 131.172 302.283C132.61 304.45 134.957 305.86 137.39 306.776C144.138 309.313 151.809 308.455 158.506 305.787C162.356 304.253 166.053 302.079 168.646 298.852C171.24 295.624 172.591 291.211 171.472 287.219C170.687 284.435 168.792 282.072 166.554 280.255C164.31 278.437 161.717 277.107 159.138 275.82C154.692 273.602 150.036 271.407 145.068 271.32" fill="#3F4553"/>
<path d="M167.971 321.251H146.586C139.838 321.251 134.368 315.777 134.368 309.023C134.368 302.269 139.838 296.794 146.586 296.794H163.533C165.988 296.794 167.978 298.786 167.978 301.244V321.251H167.971Z" fill="#8E97FD"/>
<path d="M171.022 373.843H156.792C151.831 373.843 147.806 369.815 147.806 364.85V296.787H162.036C166.997 296.787 171.022 300.815 171.022 305.78V373.843Z" fill="#8E97FD"/>
<path d="M173.535 235.878C175.467 235.42 177.646 235.769 179.361 236.947C180.203 237.536 180.944 238.299 181.416 239.208C181.699 239.637 181.845 240.131 182.026 240.596C182.164 241.076 182.259 241.578 182.339 242.058C182.099 241.614 181.946 241.149 181.699 240.727C181.445 240.313 181.242 239.877 180.937 239.506C180.407 238.721 179.716 238.066 178.946 237.536C178.184 236.998 177.312 236.612 176.404 236.343C175.489 236.096 174.53 235.922 173.535 235.878Z" fill="white"/>
<path d="M205.874 259.818C207.907 259.782 210.014 260.538 211.554 261.999C211.946 262.356 212.258 262.792 212.571 263.214C212.818 263.686 213.108 264.13 213.246 264.638C213.45 265.126 213.515 265.649 213.595 266.158C213.646 266.674 213.624 267.19 213.61 267.692C213.384 266.696 213.159 265.722 212.723 264.849C212.324 263.962 211.757 263.17 211.053 262.516C210.363 261.847 209.549 261.301 208.677 260.858C207.784 260.436 206.854 260.066 205.874 259.818Z" fill="white"/>
<path d="M193.634 249.146C194.084 249.211 194.513 249.371 194.927 249.575C195.341 249.778 195.719 250.047 196.053 250.36C196.387 250.68 196.663 251.073 196.852 251.494C197.048 251.916 197.121 252.388 197.106 252.839C196.961 252.41 196.837 251.989 196.598 251.625C196.365 251.262 196.111 250.92 195.791 250.622C195.174 250.026 194.433 249.553 193.634 249.146Z" fill="white"/>
<path d="M204.689 280.691C205.605 277.361 205.307 273.596 203.375 270.731C201.443 267.867 197.738 266.136 194.397 267.009C195.421 264.602 193.939 261.731 191.774 260.255C189.617 258.779 186.944 258.321 184.387 257.739C176.876 256.031 169.678 252.941 163.264 248.674C160.017 246.514 159.479 247.002 157.947 243.519C157.031 244.864 155.237 247.052 155.186 248.717C152.288 246.071 146.477 245.795 144.501 248.746C142.518 251.698 142.257 255.624 143.426 258.983C144.596 262.341 147.08 265.148 150.036 267.118L150.399 265.708C150.182 273.159 154.489 280.313 160.598 284.581C166.707 288.848 174.377 290.462 181.816 290.244C188.68 290.041 195.406 288.376 201.958 286.296C203.171 284.573 204.137 282.705 204.689 280.691Z" fill="#3F4553"/>
<path d="M164.419 305.78V365.41H152.797V315.115H149.608C146.245 315.115 143.521 312.389 143.521 309.023C143.521 305.657 146.245 302.93 149.608 302.93H161.571C163.148 302.93 164.419 304.202 164.419 305.78Z" stroke="#8C96FF" stroke-miterlimit="10"/>
<path d="M176.593 256.438C176.106 252.628 178.518 249.182 181.975 248.739C185.44 248.295 188.644 251.014 189.138 254.824C189.624 258.634 187.213 262.08 183.755 262.523C180.29 262.967 177.087 260.24 176.593 256.438Z" fill="#8E97FD"/>
<path d="M176.593 256.44C177.08 260.249 180.29 262.976 183.755 262.525C185.193 262.343 186.443 261.631 187.387 260.606C183.087 257.843 182.331 250.987 182.193 248.726C182.121 248.733 182.055 248.733 181.983 248.741C178.518 249.184 176.106 252.63 176.593 256.44Z" fill="#8E97FD"/>
<path d="M167.361 272.178L169.801 283.185L178.358 285.628C178.358 285.628 181.416 282.567 181.416 281.956C181.416 281.345 177.138 269.728 177.138 269.728L167.361 272.178Z" fill="#FDBCA0"/>
<path d="M177.13 269.735L167.353 272.178L168.189 275.936C169.939 276.693 171.915 277.252 174.167 277.529C175.394 277.681 176.658 277.449 177.733 276.823C178.285 276.504 178.801 276.111 179.295 275.697C178.22 272.694 177.13 269.735 177.13 269.735Z" fill="#DF8370"/>
<path d="M153.915 250.164C153.915 250.164 152.695 274.017 174.08 275.238C180.799 272.796 185.077 263.621 183.857 256.278C182.636 248.942 174.69 236.707 163.082 240.378C156.973 242.828 153.915 250.164 153.915 250.164Z" fill="#FDBCA0"/>
<path d="M221.738 277.689L237.275 258.677C237.893 257.921 238.234 256.976 238.234 255.995V250.833C238.234 250.44 238.488 250.084 238.859 249.96C239.454 249.764 240.064 250.208 240.064 250.833V254.453L245.563 244.668L252.892 244.057L243.115 261.178L228.45 286.864L221.738 277.689Z" fill="#FDBCA0"/>
<path d="M290.17 260.56L315.834 269.124L323.729 262.465C326.686 259.971 331.022 259.731 334.095 262.08C335.875 263.439 336.812 265.351 334.77 267.903C329.882 274.017 315.826 280.742 315.826 280.742L287.105 274.628L290.17 260.56Z" fill="#FDBCA0"/>
<path opacity="0.5" d="M287.12 274.628L301.379 277.667C302.294 272.527 301.582 267.336 300.921 264.152L290.178 260.567L287.12 274.628Z" fill="#DF8370"/>
<path d="M211.351 304.595C211.351 304.595 243.522 268.819 257.912 256.605C260.309 254.569 263.418 253.581 266.556 253.835C277.176 254.693 299.338 258.728 299.338 258.728C299.338 258.728 303.616 274.628 295.669 283.803C290.781 283.192 268.786 278.91 268.786 278.91L224.179 327.83L211.351 304.595Z" fill="#739BE0"/>
<path d="M296.89 291.749L317.664 314.984L334.988 317.958C338.206 318.51 340.226 321.913 338.947 324.922C338.119 326.864 336.136 329.481 331.72 328.441C321.332 325.998 311.555 322.938 311.555 322.938L287.112 303.367L296.89 291.749Z" fill="#FDBCA0"/>
<path opacity="0.5" d="M309.688 306.064L296.89 291.749L287.112 303.367L304.197 317.049C307.015 314.134 309.405 310.419 309.688 306.064Z" fill="#DF8370"/>
<path opacity="0.2" d="M257.774 263.679L212.861 307.321L224.186 327.83L268.793 278.91C268.793 278.91 290.788 283.192 295.676 283.803C296.185 283.221 296.635 282.603 297.049 281.971C289.059 275.435 279.522 267.932 272.418 262.69C267.943 259.397 261.754 259.811 257.774 263.679Z" fill="#739BE0"/>
<path d="M193.634 324.159C193.634 324.159 204.632 340.059 220.518 338.227C235.35 336.511 251.774 315.079 263.338 296.816C264.522 294.941 267.173 294.73 268.648 296.38C277.742 306.58 293.839 321.716 293.839 321.716C293.839 321.716 309.115 314.381 309.115 302.756C304.902 297.696 287.323 279.55 276.812 268.768C272.28 264.115 264.943 263.715 259.924 267.838L210.733 308.259L193.634 324.159Z" fill="#97B8FF"/>
<g opacity="0.5">
<path opacity="0.5" d="M220.518 338.227C235.35 336.511 251.774 315.079 263.338 296.816C264.522 294.94 267.173 294.73 268.648 296.38C277.742 306.58 293.839 321.716 293.839 321.716C293.839 321.716 297.398 320 301.081 316.925C292.895 308.768 284.222 301.105 275.113 294.003C272.164 291.705 268.662 289.335 264.994 290.062C261.805 290.702 259.561 293.486 257.607 296.089C253.379 301.716 249.159 307.343 244.931 312.97C240.319 319.114 235.445 325.475 228.537 328.826C222.646 331.676 215.578 331.996 209.455 329.692C204.704 327.903 200.578 324.544 197.782 320.313L193.634 324.166C193.634 324.159 204.632 340.059 220.518 338.227Z" fill="#97B8FF"/>
</g>
<path d="M252.9 321.251H274.284C281.033 321.251 286.502 315.777 286.502 309.023C286.502 302.269 281.033 296.794 274.284 296.794H257.338C254.883 296.794 252.892 298.786 252.892 301.244V321.251H252.9Z" fill="#8E97FD"/>
<path d="M249.842 373.843H264.071C269.033 373.843 273.057 369.815 273.057 364.85V296.787H258.827C253.866 296.787 249.842 300.815 249.842 305.78V373.843Z" fill="#8E97FD"/>
<path d="M255.922 305.78V365.41H267.544V315.115H270.733C274.096 315.115 276.82 312.389 276.82 309.023C276.82 305.657 274.096 302.93 270.733 302.93H258.769C257.193 302.93 255.922 304.202 255.922 305.78Z" stroke="#8C96FF" stroke-miterlimit="10"/>
<path d="M159.414 261.171L149.027 264.232C149.027 264.232 152.085 274.628 167.361 281.353L169.191 280.742C169.191 280.742 177.741 285.533 179.884 277.325C183.341 276.118 187.692 275.115 191.099 274.424C194.622 273.712 198.276 274.272 201.421 275.995L213.639 282.705C214.794 283.337 216.239 283.068 217.089 282.058L225.406 272.178L233.89 278.568L222.13 297.303C221.367 298.525 219.791 298.954 218.513 298.292L207.079 292.36L213.798 302.756C213.798 302.756 213.188 321.716 193.634 324.159C186.915 317.434 178.358 308.87 173.47 305.199C168.581 301.527 152.695 291.131 148.417 286.849C144.138 282.567 133.141 267.278 132.531 259.331C132.531 255.049 156.973 251.996 156.973 251.996L159.414 261.171Z" fill="#FFFFFE"/>
<path d="M155.506 285.031C142.736 276.271 137.325 264.828 135.037 256.954C133.497 257.688 132.531 258.488 132.531 259.339C133.141 267.292 144.138 282.574 148.417 286.856C152.695 291.138 168.581 301.534 173.47 305.206C174.341 305.86 175.336 306.674 176.404 307.605C173.796 302.065 168.058 293.646 155.506 285.031Z" fill="#F2F2F2"/>
<path d="M195.414 284.464C195.922 284.319 196.445 284.239 196.975 284.195C197.506 284.144 198.036 284.152 198.573 284.203C199.634 284.304 200.709 284.573 201.675 285.097C202.648 285.591 203.506 286.347 204.13 287.241C204.479 287.67 204.704 288.172 204.958 288.652C205.198 289.139 205.329 289.67 205.518 290.179L205.467 290.077C206.062 290.884 206.614 291.727 207.188 292.549C207.762 293.377 208.3 294.221 208.837 295.079C208.162 294.33 207.493 293.574 206.861 292.803C206.229 292.025 205.568 291.262 204.958 290.469L204.936 290.448L204.9 290.368C204.704 289.902 204.551 289.415 204.326 288.957C204.079 288.521 203.876 288.056 203.549 287.67C203.28 287.249 202.917 286.907 202.568 286.544C202.176 286.238 201.806 285.904 201.355 285.671C200.491 285.169 199.532 284.806 198.515 284.632C197.506 284.457 196.46 284.377 195.414 284.464Z" fill="#97B8FF"/>
<path d="M171.392 257.994C171.93 258.844 172.395 260.56 173.753 260.291C174.218 260.197 174.436 259.84 174.792 259.564C176.041 258.59 176.695 260.088 175.809 260.909C175.351 261.331 174.712 261.433 174.123 261.498C173.782 261.534 173.775 262.08 174.123 262.043C174.98 261.949 175.881 261.752 176.433 261.025C176.876 260.444 176.964 259.644 176.477 259.063C176.026 258.539 175.358 258.452 174.792 258.83C174.261 259.179 173.964 260.008 173.099 259.637C172.482 259.375 172.191 258.234 171.864 257.718C171.675 257.427 171.203 257.696 171.392 257.994Z" fill="#444359"/>
<path d="M168.508 266.013C171.349 268.397 175.3 267.881 177.399 264.813C177.596 264.522 177.123 264.246 176.927 264.537C175.046 267.292 171.458 267.779 168.893 265.627C168.625 265.402 168.24 265.787 168.508 266.013Z" fill="#444359"/>
<path d="M161.92 256.38C162.581 254.679 164.252 253.741 166.053 254.061C166.395 254.119 166.54 253.595 166.198 253.537C164.092 253.166 162.167 254.242 161.397 256.242C161.266 256.562 161.797 256.7 161.92 256.38Z" fill="#444359"/>
<path d="M163.656 261.214L162.211 260.378L163.874 260.524L163.656 261.214Z" fill="#444359"/>
<path d="M164.005 261.418C164.775 259.339 166.896 258.379 168.988 259.084C169.322 259.193 169.467 258.67 169.133 258.561C166.751 257.761 164.346 258.932 163.482 261.28C163.358 261.6 163.881 261.745 164.005 261.418Z" fill="#444359"/>
<path d="M164.949 259.215L164.303 257.317L165.581 258.859L164.949 259.215Z" fill="#444359"/>
<path d="M167.935 258.626L168.378 257.317L168.661 258.677L167.935 258.626Z" fill="#444359"/>
<path d="M178.932 254.162L179.949 252.832L179.593 254.468L178.932 254.162Z" fill="#444359"/>
<path d="M179.709 254.351C177.407 253.45 174.944 254.461 173.963 256.729C173.825 257.049 174.298 257.325 174.436 257.005C175.329 254.94 177.465 254.053 179.571 254.875C179.891 255.006 180.029 254.475 179.709 254.351Z" fill="#444359"/>
<path d="M176.557 254.315L176.273 252.33L177.247 254.082L176.557 254.315Z" fill="#444359"/>
<path d="M174.356 256.474L173.535 255.355L174.806 255.907L174.356 256.474Z" fill="#444359"/>
<path d="M239.12 260.567L246.348 237.885C246.537 237.296 247.074 236.889 247.699 236.874L260.665 236.532C261.66 236.503 262.386 237.463 262.096 238.415L254.89 261.978C254.694 262.61 254.098 263.032 253.437 263.01L240.45 262.479C239.491 262.421 238.83 261.483 239.12 260.567Z" fill="#3F4553"/>
<path d="M237.9 260.568L245.127 237.885C245.316 237.296 245.854 236.889 246.478 236.874L259.444 236.533C260.44 236.503 261.166 237.463 260.875 238.416L253.67 261.978C253.474 262.61 252.878 263.032 252.217 263.01L239.229 262.48C238.263 262.421 237.609 261.484 237.9 260.568Z" fill="#4E5567"/>
<path d="M258.522 240.226L253.691 256.009L253.001 258.277L252.675 259.346C252.558 259.724 252.268 260.008 251.919 260.124C251.781 260.168 251.643 260.189 251.498 260.182L248.788 260.073L240.958 259.753C240.173 259.717 239.643 258.954 239.876 258.212L243.617 246.463L245.033 242.021L245.745 239.797C245.774 239.702 245.817 239.608 245.876 239.528C246.079 239.201 246.435 238.99 246.834 238.975L247.212 238.968L257.36 238.699C258.166 238.677 258.754 239.455 258.522 240.226Z" fill="#F2EDE4"/>
<g opacity="0.35">
<path opacity="0.35" d="M253.691 256.009L253.001 258.277L245.876 239.528C246.079 239.201 246.435 238.99 246.834 238.975L247.212 238.968L253.691 256.009Z" fill="white"/>
</g>
<g opacity="0.35">
<path opacity="0.35" d="M251.919 260.124C251.781 260.168 251.643 260.189 251.498 260.182L248.788 260.073L243.617 246.463L245.033 242.021L251.919 260.124Z" fill="white"/>
</g>
<path d="M156.748 264.69C159.269 258.961 159.937 252.432 158.637 246.304C159.545 249.219 162.719 250.869 165.748 251.254C168.777 251.64 171.85 251.102 174.9 251.254C177.951 251.407 181.249 252.483 182.789 255.122C183.072 255.602 183.385 256.198 183.937 256.242C184.627 256.3 185.033 255.486 185.179 254.81C186.305 249.742 184.227 244.181 180.268 240.822C176.31 237.463 170.702 236.293 165.639 237.434C160.576 238.575 156.116 241.905 153.254 246.231C151.46 248.943 150.247 252.076 150.065 255.326C149.884 258.568 150.784 261.92 152.811 264.457C153.312 265.082 153.93 265.686 154.714 265.86C155.499 266.035 156.457 265.591 156.581 264.791" fill="#3F4553"/>
<path d="M156.679 271.997C160.437 271.23 162.815 267.33 161.991 263.286C161.167 259.241 157.453 256.585 153.695 257.352C149.938 258.118 147.559 262.019 148.383 266.063C149.207 270.107 152.922 272.764 156.679 271.997Z" fill="#8E97FD"/>
<path d="M152.441 261.672C148.315 249.081 153.479 244.333 153.712 244.028L153.864 244.013H153.901L154.053 244.006C153.879 244.246 151.801 249.953 155.194 260.306L152.441 261.672Z" fill="#8E97FD"/>
<path d="M161.15 268.71C150.472 271.545 148.714 265.824 148.736 261.694C148.228 263.025 148.082 264.537 148.395 266.071C149.223 270.12 152.934 272.774 156.69 272.01C158.629 271.603 160.198 270.367 161.15 268.71Z" fill="#8E97FD"/>
<defs>
<radialGradient id="paint0_radial_323_2" cx="0" cy="0" r="1" gradientUnits="userSpaceOnUse" gradientTransform="translate(211.5 64.9998) scale(14.9075 15.0942)">
<stop offset="2.23767e-07" stop-color="#8485E0"/>
<stop offset="1" stop-color="#7680FC"/>
</radialGradient>
<clipPath id="clip0_323_2">
<rect width="423" height="504" fill="white" transform="translate(-2.5)"/>
</clipPath>
<clipPath id="clip1_323_2">
<rect width="30" height="30" fill="white" transform="translate(196.5 50)"/>
</clipPath>
</defs>
</svg>
